<svg width="614" height="497" viewBox="0 0 614 497" fill="none" xmlns="http://www.w3.org/2000/svg">
<path d="M79.0761 387.486C53.8656 387.486 33.3604 359.235 33.3604 324.525C33.3604 289.814 53.8656 261.581 79.0761 261.581C104.272 261.581 124.775 289.814 124.775 324.525C124.775 359.235 104.272 387.486 79.0761 387.486Z" fill="white"/>
<path d="M149.557 174.65C137.82 202.214 131.766 229.01 129.087 250.807C119.799 240.985 108.02 235.085 95.1799 235.085C80.6552 235.085 67.4901 237.345 57.7568 249.203C64.43 246.144 71.5783 244.372 79.0762 244.372C113.767 244.372 141.982 280.332 141.982 324.53C141.982 368.725 113.767 404.71 79.0762 404.71C44.3828 404.71 16.1528 368.726 16.1528 324.53C16.1528 292.621 30.8948 265.096 52.1353 252.203C54.6339 230.741 59.4392 207.053 66.7666 183.099C27.3446 208.178 0 262.127 0 324.53C0 410.769 52.2035 480.944 116.366 480.944C180.522 480.944 232.713 410.77 232.713 324.53C232.713 253.802 197.58 193.917 149.557 174.65Z" fill="white"/>
<path d="M166.442 141.748C163.338 146.874 160.432 152.015 157.769 157.169C212.475 179.924 252.235 246.262 252.235 324.539C252.235 408.57 206.49 478.983 145.564 496.316C146.9 496.355 148.216 496.446 149.555 496.446C239.033 496.446 311.564 416.803 311.564 318.565C311.563 226.605 247.956 151.029 166.442 141.748Z" fill="white"/>
<path d="M432.74 374.781C403.816 374.781 380.264 346.454 380.264 311.636C380.264 276.843 403.816 248.528 432.74 248.528C461.705 248.528 485.252 276.843 485.252 311.636C485.252 346.454 461.704 374.781 432.74 374.781Z" fill="white"/>
<path d="M494.13 153.726C489.525 153.726 490.725 154.166 486.29 154.953C539.804 179.777 577.723 240.625 577.723 311.624C577.723 374.148 548.312 428.782 504.767 457.897C562.348 454.309 614 387.636 614 305.896C614 221.845 553.996 153.726 494.13 153.726Z" fill="white"/>
<path d="M432.739 154.476C374.857 154.476 329.022 198.136 312.088 258.933C318.138 277.577 321.464 297.641 321.464 318.567C321.464 336.96 318.91 354.704 314.19 371.38C332.603 428.5 377.111 468.811 432.74 468.811C506.366 468.811 566.236 398.305 566.236 311.637C566.235 224.992 506.364 154.476 432.739 154.476ZM432.739 403.479C387.989 403.479 357.3 362.267 357.3 311.638C357.3 261.031 387.989 219.845 432.739 219.845C477.525 219.845 513.946 261.031 513.946 311.638C513.946 362.267 477.525 403.479 432.739 403.479Z" fill="white"/>
<path d="M355.951 0.5988C351.809 0.208832 346.928 0 341.461 0C333.144 0 327.612 0.458151 322.073 1.15391V1.69305V6.76796C416.636 29.0505 441.648 90.9702 463.122 146.752C481.642 151.332 499.223 160.172 514.832 172.658C491.4 64.4715 445.619 9.27293 355.951 0.5988Z" fill="white"/>
<path d="M114.261 251.029C106.818 247.168 98.8169 245.183 90.5935 245.183C84.3892 245.183 78.2658 240.611 72.4014 242.848C80.6557 180.972 113.4 18.2199 284.04 2.73514C291.462 2.05749 300.363 1.71973 310.465 1.71973C311.436 1.71973 306.681 1.71973 307.647 1.72293C150.278 42.1102 119.788 188.635 114.261 251.029Z" fill="white"/>
</svg>
